<?xml version="1.0" standalone="no"?>
<!DOCTYPE svg PUBLIC "-//W3C//DTD SVG 20010904//EN"
 "http://www.w3.org/TR/2001/REC-SVG-20010904/DTD/svg10.dtd">
<svg version="1.0" xmlns="http://www.w3.org/2000/svg"
 width="640.000000pt" height="640.000000pt" viewBox="0 0 640.000000 640.000000"
 preserveAspectRatio="xMidYMid meet">

<g transform="translate(0.000000,640.000000) scale(0.100000,-0.100000)"
fill="#000000" stroke="none">
<path d="M3030 6050 c-566 -37 -1116 -250 -1570 -610 -124 -98 -358 -330 -454
-450 -264 -331 -459 -723 -556 -1123 -57 -230 -73 -376 -74 -642 0 -258 12
-375 60 -595 167 -758 648 -1419 1327 -1822 1001 -594 2191 -527 3132 176 158
118 432 392 548 547 295 397 467 804 542 1289 22 144 31 504 16 666 -52 551
-270 1083 -625 1524 -33 41 -112 128 -176 194 -492 507 -1137 803 -1844 846
-89 5 -172 9 -186 8 -14 0 -77 -4 -140 -8z m390 -190 c515 -45 1018 -248 1430
-576 131 -104 346 -326 446 -459 276 -369 430 -725 516 -1196 20 -109 22 -157
22 -404 1 -314 -10 -409 -69 -647 -95 -377 -263 -716 -513 -1033 -79 -99 -311
-329 -412 -407 -224 -173 -484 -318 -735 -410 -101 -37 -302 -94 -358 -102
-54 -7 -20 5 83 29 323 77 748 292 1018 516 192 159 394 381 526 579 500 748
582 1694 220 2515 -136 309 -310 563 -548 800 -149 148 -241 223 -416 341
-592 395 -1285 523 -1990 368 -1031 -228 -1849 -1101 -2020 -2155 -119 -738
70 -1460 537 -2046 91 -115 237 -268 337 -353 42 -35 76 -68 76 -73 0 -28
-279 237 -397 378 -225 268 -414 618 -511 947 -79 265 -107 488 -99 796 8 347
64 621 190 929 206 501 549 922 997 1223 486 325 1106 489 1670 440z m-122
-409 c186 -95 233 -338 95 -491 -60 -67 -108 -90 -198 -97 -97 -8 -158 13
-229 78 -73 66 -101 130 -100 229 0 62 4 86 27 132 34 70 108 139 174 161 66
23 174 18 231 -12z m-1110 -472 c3 -28 -16 -43 -43 -33 -15 6 -21 45 -8 58 16
16 48 1 51 -25z m671 -51 c40 -55 87 -93 159 -126 47 -22 71 -26 142 -26 103
0 176 26 241 83 38 33 52 39 103 43 50 4 75 0 153 -28 182 -66 306 -140 431
-258 96 -91 155 -169 209 -273 56 -110 55 -126 -4 -73 -72 63 -195 135 -290
170 -380 137 -803 35 -1089 -262 -110 -114 -180 -232 -224 -377 -12 -40 -26
-69 -30 -64 -22 22 -92 167 -114 236 -87 267 -38 584 127 832 39 59 135 165
149 165 4 0 21 -19 37 -42z m-910 8 c23 -28 -17 -68 -45 -45 -17 14 -18 31 -2
47 16 16 33 15 47 -2z m2615 -88 l17 -57 57 -16 c31 -9 64 -18 72 -21 8 -4
-15 -15 -53 -27 -77 -23 -87 -35 -107 -130 -6 -32 -14 -56 -17 -54 -2 3 -11
33 -19 67 -21 90 -26 96 -99 115 -36 10 -63 21 -59 24 3 3 33 15 67 26 67 22
70 26 98 135 11 41 12 43 19 20 4 -14 15 -51 24 -82z m-2082 -65 c-206 -436
-147 -906 152 -1221 148 -156 322 -246 529 -274 48 -7 87 -15 87 -18 0 -14
-171 -117 -259 -156 -265 -119 -576 -133 -804 -35 l-47 20 31 43 c117 162 92
379 -61 521 -32 30 -79 63 -104 72 -28 11 -46 25 -50 39 -3 11 -6 76 -6 144 0
245 69 452 227 680 84 123 133 177 202 226 53 38 141 79 150 70 2 -2 -19 -52
-47 -111z m-837 -228 c10 -41 23 -79 30 -85 6 -5 37 -16 70 -24 32 -9 60 -17
62 -19 1 -2 -23 -11 -54 -20 -32 -9 -64 -21 -72 -26 -7 -5 -23 -43 -35 -85
l-22 -76 -18 74 c-10 41 -23 79 -30 85 -6 5 -43 18 -81 29 l-69 19 70 17 c38
10 74 22 81 27 6 6 19 44 29 85 10 41 19 74 20 74 1 0 10 -34 19 -75z m2132
-190 c233 -38 435 -157 559 -331 l46 -64 -55 -50 c-120 -109 -167 -263 -124
-407 22 -74 44 -111 99 -169 l50 -53 -27 -86 c-82 -269 -291 -517 -540 -642
-33 -17 -71 -34 -84 -38 -23 -7 -23 -6 6 36 77 111 147 281 183 444 33 143 33
378 1 520 -46 202 -127 368 -253 516 -36 41 -53 70 -49 78 10 15 141 -127 141
-152 0 -9 5 -19 10 -22 6 -4 7 -11 4 -17 -4 -6 -2 -8 4 -4 12 7 42 -19 42 -37
0 -7 -4 -6 -10 3 -5 8 -10 11 -10 5 0 -15 16 -37 25 -35 8 2 45 -50 45 -63 0
-5 -6 -5 -12 -2 -7 4 -5 0 4 -8 35 -29 93 -212 119 -380 31 -199 -32 -533
-141 -746 -11 -23 -18 -41 -15 -41 16 0 129 80 192 137 124 110 237 282 282
427 24 79 26 109 8 128 -31 32 -60 82 -61 106 -3 40 -28 112 -38 112 -5 0 -6
10 -3 21 5 14 3 19 -3 15 -16 -9 -7 141 12 203 14 49 43 112 81 177 25 41 15
71 -42 131 -102 105 -240 187 -381 225 -93 25 -262 29 -367 9 -96 -19 -108
-27 -50 -35 55 -9 224 -93 275 -137 l35 -31 -45 29 c-62 40 -177 89 -225 96
-22 4 -34 4 -28 1 7 -3 29 -20 48 -37 19 -17 42 -32 51 -33 21 -3 44 -24 44
-40 0 -21 -7 -18 -58 25 -51 43 -177 107 -229 117 -18 3 -33 10 -33 14 0 18
133 64 245 84 105 19 161 19 272 1z m1107 -70 c7 -20 -18 -49 -38 -42 -25 10
-32 38 -12 53 20 14 42 9 50 -11z m-3410 -361 c18 -7 22 -49 6 -59 -33 -20
-65 26 -38 53 14 14 12 14 32 6z m3226 -32 c145 -70 215 -238 161 -383 -29
-76 -79 -132 -153 -168 -51 -26 -73 -31 -133 -31 -60 0 -82 5 -133 31 -101 50
-162 147 -164 262 -2 146 82 262 222 308 45 15 152 5 200 -19z m415 -102 c0
-18 -6 -26 -23 -28 -13 -2 -25 3 -28 12 -10 26 4 48 28 44 17 -2 23 -10 23
-28z m-3165 -136 c71 -21 167 -115 193 -189 38 -109 14 -224 -65 -311 -63 -68
-129 -98 -223 -98 -168 -1 -298 130 -299 300 0 60 4 81 32 137 70 141 213 205
362 161z m1709 -146 c-55 -103 -129 -222 -167 -267 -83 -98 -222 -204 -372
-284 -96 -51 -165 -74 -80 -27 30 17 48 29 40 27 -8 -2 -26 -7 -40 -11 -14 -4
13 14 60 41 238 136 408 292 526 483 36 59 56 82 33 38z m1212 -565 c11 -40
15 -44 62 -58 28 -8 59 -15 69 -15 10 0 18 -4 18 -10 0 -5 -8 -10 -18 -10 -10
0 -40 -7 -66 -16 -52 -18 -69 -43 -82 -123 -6 -39 -24 -48 -24 -12 0 9 -7 40
-15 68 -14 48 -18 52 -62 67 -26 9 -55 16 -65 16 -10 0 -18 5 -18 10 0 6 6 10
13 10 7 0 37 7 65 15 56 17 55 15 88 150 l7 30 8 -40 c5 -22 14 -59 20 -82z
m-1861 -7 c0 -2 -7 -7 -16 -10 -8 -3 -12 -2 -9 4 6 10 25 14 25 6z m-60 -56
c-8 -5 -19 -10 -25 -10 -5 0 -3 5 5 10 8 5 20 10 25 10 6 0 3 -5 -5 -10z
m-1431 -19 c13 -24 -9 -57 -33 -48 -23 9 -31 34 -16 52 17 20 37 19 49 -4z
m691 -1 c41 -10 66 -19 55 -20 -17 -1 -17 -3 5 -12 14 -5 45 -13 70 -18 l45
-8 -45 -1 -45 -1 25 -20 c14 -11 61 -41 105 -67 44 -25 82 -50 83 -55 2 -4 9
-5 14 -2 6 4 8 2 4 -4 -3 -6 3 -14 15 -17 11 -4 19 -9 16 -11 -14 -14 -206 79
-292 142 -54 39 -143 115 -134 114 2 -1 38 -9 79 -20z m138 -27 c-10 -2 -26
-2 -35 0 -10 3 -2 5 17 5 19 0 27 -2 18 -5z m-423 -228 c0 -23 -5 -30 -19 -30
-28 0 -43 29 -26 50 21 25 45 14 45 -20z m2520 5 c0 -18 -6 -26 -23 -28 -27
-4 -40 22 -22 44 19 22 45 13 45 -16z m-1192 -314 c18 -7 47 -29 65 -48 l33
-35 -42 -37 -43 -36 -29 30 c-25 25 -37 30 -77 30 -91 0 -149 -79 -150 -202 0
-57 4 -71 26 -97 43 -51 116 -50 172 2 l23 21 36 -37 37 -36 -24 -26 c-40 -43
-99 -65 -174 -65 -141 0 -219 83 -218 235 0 179 119 315 275 315 32 0 72 -6
90 -14z m1786 -5 c53 -28 67 -46 50 -68 -46 -62 -50 -64 -76 -43 -52 41 -127
33 -139 -15 -8 -34 14 -58 74 -80 108 -40 148 -102 123 -193 -23 -86 -90 -132
-192 -132 -67 0 -131 24 -164 61 -18 19 -18 21 20 59 38 39 39 40 59 21 69
-62 166 -51 166 20 0 28 -6 33 -73 64 -111 50 -150 109 -128 193 23 84 89 131
184 132 38 0 71 -7 96 -19z m-3308 7 c30 -153 95 -525 92 -530 -2 -5 -28 -8
-57 -8 l-54 0 -6 38 c-14 76 -8 72 -110 72 l-92 0 -27 -55 -27 -55 -56 0 c-42
0 -55 3 -52 14 2 8 59 129 127 270 l125 256 68 0 c37 0 68 -1 69 -2z m355 -25
c-3 -16 -17 -102 -31 -193 -14 -91 -27 -175 -30 -187 -5 -22 -3 -22 97 -25
l103 -3 -3 -35 c-7 -74 4 -70 -173 -70 -87 0 -159 3 -159 8 0 4 18 122 40 262
22 140 40 258 40 263 0 4 27 7 61 7 l61 0 -6 -27z m394 15 c0 -7 -14 -98 -30
-203 -16 -104 -30 -196 -30 -202 0 -10 27 -13 100 -13 111 0 110 1 94 -79 l-6
-31 -161 0 -160 0 7 63 c4 34 13 98 21 142 7 44 21 137 31 208 l18 127 58 0
c40 0 58 -4 58 -12z m1035 -203 l-32 -215 104 0 104 0 -7 -47 c-3 -27 -8 -51
-11 -55 -2 -5 -73 -8 -158 -8 -85 0 -156 3 -158 8 -3 4 12 120 34 257 21 138
38 256 39 263 0 8 19 12 58 12 l59 0 -32 -215z m410 193 c-13 -57 -45 -295
-45 -334 0 -112 150 -107 180 5 5 20 19 107 31 194 l22 157 59 0 c32 0 58 -3
58 -7 -1 -51 -62 -387 -75 -413 -43 -86 -102 -120 -208 -120 -60 0 -80 4 -107
23 -64 43 -75 69 -74 165 1 48 11 143 23 212 12 69 21 128 21 133 0 4 27 7 60
7 57 0 60 -1 55 -22z m702 -4 c16 -12 34 -39 42 -63 12 -37 11 -48 -4 -88 -10
-27 -28 -52 -44 -61 l-26 -15 32 -32 c28 -28 33 -40 33 -83 0 -84 -55 -144
-149 -162 -60 -11 -261 -14 -261 -3 0 3 4 34 10 67 5 34 21 140 35 236 14 96
28 188 31 203 l6 29 133 -4 c117 -3 137 -6 162 -24z m-2812 -688 c19 -8 35
-20 35 -26 0 -16 -30 -24 -43 -11 -20 20 -64 13 -86 -15 -55 -70 13 -155 90
-114 28 16 44 2 24 -20 -57 -63 -175 -6 -175 85 0 40 28 85 63 100 41 18 50
18 92 1z m408 -26 c53 -60 29 -155 -47 -180 -44 -14 -77 -5 -111 30 -49 51
-34 143 29 175 44 22 95 13 129 -25z m301 -29 c14 -32 26 -64 26 -70 0 -28 17
-5 44 59 24 59 32 70 52 70 24 0 24 -1 24 -105 0 -85 -3 -105 -15 -105 -11 0
-15 17 -17 73 l-3 72 -32 -67 c-18 -38 -37 -68 -43 -68 -6 0 -23 28 -37 62
-25 55 -28 59 -34 37 -4 -13 -7 -43 -8 -66 -1 -31 -5 -43 -16 -43 -12 0 -15
18 -15 105 0 104 0 105 24 105 19 0 28 -11 50 -59z m406 50 c0 -4 13 -37 29
-72 l29 -64 33 73 c27 60 36 72 55 72 24 0 24 -1 24 -105 0 -83 -3 -105 -14
-105 -15 0 -30 58 -20 83 3 9 2 23 -4 32 -7 13 -14 4 -35 -44 -15 -34 -32 -61
-39 -61 -7 0 -24 26 -37 58 -35 83 -41 84 -41 4 0 -57 -3 -72 -15 -72 -12 0
-15 18 -15 105 l0 105 25 0 c14 0 25 -4 25 -9z m400 -62 c0 -85 11 -109 48
-109 44 0 52 16 52 102 0 63 3 78 15 78 12 0 15 -16 15 -88 0 -105 -13 -125
-81 -125 -63 0 -76 21 -82 126 -4 80 -3 87 14 87 17 0 19 -8 19 -71z m419 7
c22 -35 45 -67 51 -71 6 -4 10 18 10 64 0 62 2 71 18 71 17 0 19 -8 16 -67 -1
-38 -3 -85 -3 -105 -2 -59 -28 -48 -86 35 l-50 72 -3 -72 c-3 -65 -5 -73 -22
-73 -19 0 -20 7 -20 105 0 104 0 105 24 105 19 0 33 -14 65 -64z m337 -13 c-3
-42 -6 -89 -6 -105 0 -18 -5 -28 -15 -28 -12 0 -15 18 -15 105 0 101 1 105 21
105 21 0 22 -3 15 -77z m354 62 c0 -10 -10 -15 -29 -15 -26 0 -29 -3 -35 -46
-3 -26 -6 -66 -6 -90 0 -32 -4 -44 -15 -44 -12 0 -15 17 -15 90 l0 90 -30 0
c-20 0 -30 5 -30 15 0 12 16 15 80 15 64 0 80 -3 80 -15z m232 -25 c13 -22 26
-40 29 -40 4 0 12 13 19 30 15 36 34 53 54 48 12 -2 8 -15 -19 -58 -27 -42
-35 -66 -35 -102 0 -41 -3 -48 -20 -48 -17 0 -20 7 -20 48 0 31 -7 57 -21 77
-11 17 -27 42 -35 58 -14 25 -13 27 5 27 13 0 29 -14 43 -40z m-1807 -440 c0
-13 -42 -15 -310 -17 -170 -2 -316 1 -324 6 -7 5 -10 14 -7 20 5 8 98 11 324
9 274 -3 317 -5 317 -18z m690 10 c15 -24 -59 -30 -345 -30 -289 0 -322 3
-305 30 8 14 642 14 650 0z m659 4 c50 -19 -14 -24 -304 -24 -176 0 -320 4
-320 8 0 5 3 12 7 15 8 9 596 9 617 1z m-2599 -14 c4 -6 30 -26 60 -44 29 -19
56 -40 60 -46 4 -7 -27 12 -69 40 -42 29 -76 55 -76 56 0 8 19 3 25 -6z"/>
<path d="M3310 4690 c-8 -5 -22 -8 -30 -5 -8 2 -46 -1 -85 -8 -45 -8 -91 -9
-130 -4 -81 11 -193 2 -214 -18 -10 -8 -23 -15 -29 -15 -7 0 -12 -6 -12 -14 0
-7 -20 -35 -45 -62 -25 -26 -45 -54 -45 -61 0 -7 -4 -13 -10 -13 -5 0 -10 -8
-10 -19 0 -10 -11 -29 -24 -43 -15 -18 -30 -56 -44 -119 -25 -108 -43 -229
-36 -240 2 -4 5 -31 5 -59 1 -30 7 -54 14 -56 6 -3 10 -17 8 -32 -2 -15 5 -49
16 -77 14 -35 20 -43 21 -27 0 35 49 170 83 232 71 128 178 239 362 378 55 41
102 78 105 81 3 3 11 7 19 9 8 2 26 11 40 21 14 10 36 22 49 25 12 4 22 12 22
17 0 5 8 9 18 9 9 0 29 11 44 24 16 16 41 26 67 29 22 2 44 6 48 10 3 4 22 7
40 7 46 0 33 16 -19 24 -79 13 -213 16 -228 6z"/>
<path d="M2364 3475 c-21 -18 -27 -35 -35 -96 -5 -41 -13 -85 -18 -99 -21 -54
-42 -143 -38 -155 3 -6 31 -15 62 -19 31 -3 69 -12 83 -20 43 -22 287 -14 385
13 86 23 267 98 267 111 0 5 12 13 28 18 21 7 5 9 -66 10 -82 0 -100 4 -165
33 -39 18 -83 40 -97 49 -14 9 -32 20 -40 24 -8 4 -37 20 -65 36 -27 16 -65
36 -83 44 -18 8 -40 22 -48 31 -9 8 -31 15 -49 15 -19 0 -36 4 -39 9 -13 20
-56 18 -82 -4z"/>
<path d="M4570 3765 c-14 -8 -44 -23 -68 -35 -24 -11 -49 -25 -56 -32 -7 -7
-30 -26 -50 -43 -45 -38 -47 -71 -6 -142 49 -86 138 -140 212 -128 62 10 141
65 175 122 41 69 40 151 -2 213 -16 25 -37 47 -45 49 -41 12 -137 10 -160 -4z"/>
<path d="M1920 3250 c0 -19 1 -19 20 -3 11 10 20 19 20 20 0 2 -9 3 -20 3 -13
0 -20 -7 -20 -20z"/>
<path d="M1606 2096 c-20 -43 -41 -87 -47 -97 -9 -18 -5 -19 52 -19 l61 0 -6
63 c-4 34 -11 78 -15 97 l-8 35 -37 -79z"/>
<path d="M4423 2158 l-8 -53 55 -3 c46 -3 58 0 72 19 40 48 12 89 -62 89 l-48
0 -9 -52z"/>
<path d="M4396 1978 c-14 -69 -16 -97 -6 -103 7 -4 36 -4 67 0 61 7 93 31 93
68 0 39 -30 57 -93 57 -51 0 -57 -2 -61 -22z"/>
<path d="M2091 1544 c-12 -15 -21 -37 -21 -49 0 -35 37 -75 70 -75 44 0 72 29
72 75 0 71 -79 103 -121 49z"/>
</g>
</svg>
